<svg id="Capa_1" enable-background="new 0 0 512 512" height="512" viewBox="0 0 512 512" width="512" xmlns="http://www.w3.org/2000/svg"><g><path d="m121 0v96.726l21.709 10.856c.249.132 27.334 13.418 53.291 13.418s53.042-13.286 53.306-13.433c1.347-.659 33.53-16.567 66.694-16.567s65.347 15.908 66.709 16.582l8.291 4.144v-111.726z"/><path d="m316 121c-25.957 0-53.042 13.286-53.306 13.433-1.347.659-33.53 16.567-66.694 16.567s-65.347-15.908-66.709-16.582l-8.291-4.146v65.728c0 52.808 39.185 96.636 90 103.931v31.069h30v30h-30v90h30v61h30v-61h30v-90h-30v-30h30v-31.069c50.815-7.295 90-51.123 90-103.931v-50.731l-21.709-10.851c-.249-.132-27.334-13.418-53.291-13.418z"/></g></svg>